inDegrees=no
num_controls=7
num_derivatives=13
num_iterations=68
num_multipliers=7
num_parameters=0
num_slacks=7
num_states=26
objective=0.461188
objective_accelerations=0.000550
objective_balance=0.010436
objective_effort=0.012652
objective_height=0.437550
objective_ligament=0.000000
solver_duration=897.140025
status=Solve_Succeeded
success=true
DataType=double
version=3
OpenSimVersion=4.5
endheader
time	/jointset/ground_pelvis/pelvis_tilt/value	/jointset/ground_pelvis/pelvis_tx/value	/jointset/ground_pelvis/pelvis_ty/value	/jointset/hip_l/hip_flexion_l/value	/jointset/hip_l/hip_adduction_l/value	/jointset/hip_l/hip_rotation_l/value	/jointset/back/lumbar_extension/value	/jointset/patellofemoral_l/patellar_flexion_l/value	/jointset/knee_l/knee_flexion_l/value	/jointset/knee_l/knee_adduction_l/value	/jointset/knee_l/knee_rotation_l/value	/jointset/ankle_l/ankle_angle_l/value	/jointset/subtalar_l/subtalar_angle_l/value	/jointset/ground_pelvis/pelvis_tilt/speed	/jointset/ground_pelvis/pelvis_tx/speed	/jointset/ground_pelvis/pelvis_ty/speed	/jointset/hip_l/hip_flexion_l/speed	/jointset/hip_l/hip_adduction_l/speed	/jointset/hip_l/hip_rotation_l/speed	/jointset/back/lumbar_extension/speed	/jointset/patellofemoral_l/patellar_flexion_l/speed	/jointset/knee_l/knee_flexion_l/speed	/jointset/knee_l/knee_adduction_l/speed	/jointset/knee_l/knee_rotation_l/speed	/jointset/ankle_l/ankle_angle_l/speed	/jointset/subtalar_l/subtalar_angle_l/speed	/forceset/tau_hip_flexion_l	/forceset/tau_hip_adduction_l	/forceset/tau_hip_rotation_l	/forceset/tau_knee_flexion_l	/forceset/tau_ankle_angle_l	/forceset/tau_subtalar_angle_l	/forceset/tau_lumbar_extension	lambda_cid13_p0	lambda_cid13_p1	lambda_cid13_p2	lambda_cid13_p3	lambda_cid13_p4	lambda_cid13_p5	lambda_cid14_p0	/jointset/ground_pelvis/pelvis_tilt/accel	/jointset/ground_pelvis/pelvis_tx/accel	/jointset/ground_pelvis/pelvis_ty/accel	/jointset/hip_l/hip_flexion_l/accel	/jointset/hip_l/hip_adduction_l/accel	/jointset/hip_l/hip_rotation_l/accel	/jointset/back/lumbar_extension/accel	/jointset/patellofemoral_l/patellar_flexion_l/accel	/jointset/knee_l/knee_flexion_l/accel	/jointset/knee_l/knee_adduction_l/accel	/jointset/knee_l/knee_rotation_l/accel	/jointset/ankle_l/ankle_angle_l/accel	/jointset/subtalar_l/subtalar_angle_l/accel	gamma_cid13_p0	gamma_cid13_p1	gamma_cid13_p2	gamma_cid13_p3	gamma_cid13_p4	gamma_cid13_p5	gamma_cid14_p0
1	-0.1436231959132309	0.04742034286199439	0.8950489694224208	0.3989968112191953	-0.2721597017971712	-0.0107531046931042	-0.0614374001016606	0.03923960711974497	0.03923960711973166	-0.1745147443526714	-0.07328794866392692	-0.03759623280364617	-0.02440668587392388	-0.003054442332260639	-0.002689006310125173	-0.001097369095002805	0.01216596091918068	-0.0002184929279347638	0.006647349989732473	-0.02521251812372077	0.008753083515606072	0.008753083515606918	8.578373342986895e-06	-0.003740886078760776	0.0005972074441543285	-0.0001495557216669521	0.007843219308987241	0.03416960559665303	0.01882926483477539	-0.188433641752372	0.1838885254908377	-0.06089532922956464	0.03416988434573687	16.56061048600642	27.54961666074517	-9.366305553530619	1.377391482930846	-629.9481450043554	-15.13798244651791	-34.42254622215532	0.0376953542742744	0.005016373454072774	0.005065075303182924	-0.05573220808527745	0.00151402795058712	-0.04099830220234399	0.1136955687216025	-0.008768024259301125	-0.008768024259301056	-0.0001235728871835737	0.03674783938836178	0.003410803355857109	0.002783172283439955	5.251127987450878e-11	-1.57453863591139e-10	-4.273754660474663e-11	-4.904658078641106e-11	8.914824720660463e-11	3.482798106559174e-11	1.740773510283115e-11
1.01	-0.1436518625146707	0.04739369792514875	0.8950382471986204	0.3991157082276221	-0.2721618081395161	-0.01068874287866556	-0.06168383757378724	0.03932672614164505	0.03932672614165643	-0.1745146634868304	-0.07332345342213459	-0.03759009006847489	-0.02440803852436403	-0.002678501410817053	-0.002640337667847858	-0.00104708126189139	0.01161350858699895	-0.0002027446387166511	0.006224818518321128	-0.02407506452927684	0.00867079665476345	0.00867079665476421	7.668413085355061e-06	-0.003359884957493346	0.0006309181447972644	-0.0001210360252559736	0.007731569843017177	0.03417791653046495	0.01885456349465965	-0.1883611173470007	0.1837900374791244	-0.06088057008284743	0.03426977878150591	16.52983629628981	27.54820789575563	-9.36563867675641	1.391844287895601	-629.9470245342505	-15.14063610647157	-34.42484428645366	0.0375999500044136	0.004738606140718286	0.005009794713225481	-0.05499156494426573	0.001609903786703384	-0.04290972366858185	0.113757020518544	-0.007947655628717432	-0.007947655628735282	-6.369564121508819e-05	0.03880334234065771	0.003287998566468895	0.002877140180550061	8.386835511647484e-11	-8.761797165764299e-11	-7.452368090658377e-11	-6.140019043842398e-11	-1.438600180036414e-11	1.235980205995031e-10	3.46744235000686e-11
1.02	-0.143676758409105	0.04736752897403147	0.8950280276846303	0.3992290827489103	-0.2721637560640778	-0.01062861220975895	-0.06191890315682325	0.03941302456722347	0.03941302456725803	-0.1745145895182171	-0.07335514275042929	-0.03758362286726925	-0.02440910782346832	-0.002300300932391397	-0.002593809164453892	-0.0009968271328893111	0.01106146348843361	-0.0001868093743327658	0.00580112088458795	-0.02293814030634012	0.008588964248648356	0.008588964248649026	7.198930981050411e-06	-0.00297780008242571	0.0006621006513604467	-9.288545442044008e-05	0.007619920377135985	0.03418622746427703	0.01887986215427868	-0.1882885929415526	0.18369154946742	-0.06086581093612405	0.03436967321734569	16.49889819073349	27.54663085681247	-9.364719980362819	1.406343075308976	-629.9479219446054	-15.14347034615085	-34.42714392140661	0.0381472656706349	0.004588345677459513	0.005058334481315897	-0.05565076136201328	0.001551422983722275	-0.04123153466666681	0.113589694420134	-0.008677133313801131	-0.008677133313801244	-3.547725655313091e-05	0.03696459014836651	0.002905164539976797	0.002709347168347415	4.98086509015045e-11	-1.320919637103172e-10	-4.533720223453055e-11	-4.032200634709528e-11	2.709820315564247e-11	4.484388173882274e-11	1.893128362955263e-11
1.03	-0.1436978579913058	0.0473418126211074	0.8950183105010598	0.39933693872693	-0.2721655439198272	-0.01057272398929321	-0.06214260065562517	0.03949850796324207	0.03949850796326818	-0.1745145184071479	-0.07338300591521127	-0.0375768584002236	-0.02440989810874346	-0.001918942793282383	-0.002550018209192976	-0.0009466205511398041	0.01050979971312949	-0.0001707517853685028	0.005376393753120272	-0.02180129393575644	0.008507898228132622	0.008507898228133222	7.063070236439071e-06	-0.002594688975551978	0.000690181714221907	-6.529704488665205e-05	0.007506146275459436	0.03419435692263045	0.01890542454727727	-0.1882004917560479	0.1835639356783584	-0.06084998242190352	0.03446869448249889	16.45855653538173	27.54548260165446	-9.363009212816612	1.430785289983543	-629.9457071675716	-15.146683223502	-34.42944516890217	0.03823099697797794	0.004190948605194571	0.005000188804366489	-0.0549140428394725	0.001634452534036923	-0.04311272608949323	0.1137419359615737	-0.007793846148550881	-0.007793846148538961	3.296699972532157e-06	0.03900594886030094	0.002667918696277821	0.002764800815670489	1.508142852880993e-11	-1.77732383150606e-10	-1.552855404233526e-11	-1.890268150328329e-11	7.006218825412926e-11	-3.561968751364008e-11	2.85130877671245e-12
1.04	-0.1437151238103218	0.04731651747336732	0.8950090950570631	0.3994392800957713	-0.2721671708945354	-0.01052108692489016	-0.06235492772519909	0.03958318619712376	0.03958318619713681	-0.1745144474672621	-0.07340703365342161	-0.03756983145424299	-0.02441041626732959	-0.001533548296302931	-0.002509568127656998	-0.0008964792181596032	0.009958541648839452	-0.0001546331691549366	0.004950889673544724	-0.02066405446182636	0.008427931818497904	0.008427931818498439	7.164696827628166e-06	-0.00221071475252933	0.0007145964385655623	-3.846011656194992e-05	0.007392372173905253	0.03420248638097519	0.01893098693997443	-0.1881123905704712	0.1834363218892964	-0.06083415390768696	0.03456771574776422	16.41804987431542	27.5441637890692	-9.361043435392233	1.455308225170767	-629.9455008091633	-15.15007942302457	-34.43174852741696	0.03895453724467661	0.003920170932518965	0.005045284727454061	-0.05556961915920425	0.001563628433561826	-0.04138692428821325	0.1136683150893885	-0.008457211137599048	-0.008457211137599039	1.20202105676529e-05	0.03713721337813021	0.002171896836474572	0.00255905092652267	1.278943603520583e-11	-1.955757737478058e-10	-1.589343252149023e-11	-2.207073025782638e-11	9.094049052807885e-11	-5.866808195640671e-11	1.326939223645617e-12
1.05	-0.14372851574691	0.04729160722294638	0.895000380308132	0.3995361141067317	-0.2721686369047689	-0.01047371007861952	-0.0625558815739318	0.0396670690381237	0.03966706903813543	-0.1745143753466512	-0.07342721659096139	-0.03756258330290103	-0.02441067134942041	-0.001144205377871639	-0.002473331285433018	-0.0008465228079211199	0.009408675471915113	-0.0001386074639896545	0.004524252373932327	-0.01952674882840527	0.008348708059775027	0.008348708059775396	7.206091266784601e-06	-0.001825682370480848	0.000733964510139505	-1.283110726673269e-05	0.007282597608095154	0.03421035198878698	0.01895564872895134	-0.1880162294971095	0.1832880681853244	-0.06081759393467755	0.03466096483557916	16.37085985424831	27.54319237479851	-9.358556055116903	1.488962900735861	-629.9418902219977	-15.15369547970136	-34.43405407919253	0.03901921575978581	0.003348036404278228	0.004963005621768198	-0.05463287542379592	0.001616279769743263	-0.04333621869623341	0.1137566557404384	-0.007644206743414983	-0.007644206743392095	-7.834918921981009e-06	0.03921480173927074	0.001658860591912999	0.002523640464500111	1.151104447532312e-11	-2.125505071936593e-10	-1.720123370912471e-11	-2.600713443731791e-11	1.111286152137618e-10	-7.992225218637067e-11	2.574323361966164e-13
1.06	-0.1437379952449877	0.04726703386005554	0.8949921635605926	0.3996274619042508	-0.2721699438102931	-0.01043060642253282	-0.0627454633726697	0.03975016179184951	0.03975016179185249	-0.1745143044189003	-0.07344354349454182	-0.03755517355118894	-0.0244106783785118	-0.0007510605947406121	-0.002442190621636146	-0.0007968789398027329	0.008861298956414892	-0.0001228122303522549	0.004096251638378928	-0.01838964446412227	0.008269914360903866	0.00826991436090407	6.926126526340858e-06	-0.001439507943577448	0.0007469165126747459	1.11504833677889e-05	0.007172823042417358	0.03421821759658234	0.01898031051759492	-0.1879200684236874	0.1831398144813423	-0.06080103396168133	0.03475421392352688	16.32350310827717	27.54204717636937	-9.355809120741572	1.522753332769047	-629.9402769322473	-15.1575007554583	-34.43636232652761	0.03971491018458054	0.002900935247138303	0.004982776303433569	-0.05507168687438108	0.001517534127962675	-0.04165961147640334	0.1136280612617465	-0.008371199167254786	-0.008371199167254557	-5.225162539584309e-05	0.0373656223491117	0.0008886830287853143	0.002229567194372958	-1.09795451983395e-11	-2.006055742251875e-10	-1.368876324120794e-11	-1.073915904583543e-11	1.012709404995641e-10	-4.964234980753929e-11	-7.742571036323961e-12
